# xmcd
#
# Track frame offsets: 
#        182
#        12705
#        27087
#        38450
#        63322
#        82597
#        93280
#        109455
#        121067
#        141705
#
# Disc length: 2175 seconds
#
# Revision: 2
# Processed by: cddbd v1.5.2PL0 Copyright (c) Steve Scherf et al.
# Submitted via: ExactAudioCopyFreeDBPlugin 1.0
#
DISCID=7a087d0a
DTITLE=Eric Andersen - Eric Andersen
DYEAR=1969
DGENRE=Country
TTITLE0=Don´t Leave Me Here For Deal
TTITLE1=It Wasn´t A Lie
TTITLE2=Sign Of A Desperate Man
TTITLE3=I Will Wait
TTITLE4=What Is It Like To Be Free
TTITLE5=She Touched Me
TTITLE6=Lie With Me
TTITLE7=I Was The Rebel (She Was The Cause)
TTITLE8=Secrets
TTITLE9=Go Now Deborah
EXTD=
EXTT0=
EXTT1=
EXTT2=
EXTT3=
EXTT4=
EXTT5=
EXTT6=
EXTT7=
EXTT8=
EXTT9=
PLAYORDER=
